<svg width="640" height="420" viewBox="0 0 640 420" fill="none" xmlns="http://www.w3.org/2000/svg">
  <rect width="640" height="420" rx="36" fill="#F4F8FF"/>
  <circle cx="525" cy="92" r="54" fill="#F9B300" fill-opacity="0.22"/>
  <circle cx="122" cy="330" r="72" fill="#0066CC" fill-opacity="0.12"/>
  <rect x="115" y="144" width="406" height="174" rx="30" fill="white"/>
  <rect x="135" y="176" width="366" height="112" rx="24" fill="#EAF3FF"/>
  <path d="M202 144C214.5 109 244 86 281 86H355C392 86 421.5 109 434 144" stroke="#0F4F96" stroke-width="18" stroke-linecap="round"/>
  <rect x="170" y="186" width="44" height="78" rx="20" fill="#F9B300"/>
  <rect x="224" y="166" width="68" height="98" rx="22" fill="#68A83D"/>
  <circle cx="338" cy="223" r="35" fill="#FF6F61"/>
  <circle cx="402" cy="214" r="29" fill="#FFD166"/>
  <path d="M385 249C385 231.327 399.327 217 417 217H446C463.673 217 478 231.327 478 249V264H385V249Z" fill="#0066CC"/>
  <rect x="163" y="313" width="309" height="14" rx="7" fill="#D5E6FF"/>
  <rect x="198" y="329" width="235" height="10" rx="5" fill="#E7EEF8"/>
  <text x="64" y="78" fill="#0F4F96" font-family="Arial, sans-serif" font-size="28" font-weight="700">Mercado fresco</text>
  <text x="64" y="112" fill="#627187" font-family="Arial, sans-serif" font-size="20">promociones y favoritos del hogar</text>
</svg>
